<?xml version="1.0" encoding="iso-8859-1"?>
<!-- Uploaded to: SVG Repo, www.svgrepo.com, Generator: SVG Repo Mixer Tools -->
<svg height="800px" width="800px" version="1.1" id="Layer_1" xmlns="http://www.w3.org/2000/svg" xmlns:xlink="http://www.w3.org/1999/xlink" 
	 viewBox="0 0 511.998 511.998" xml:space="preserve">
<path style="fill:#385C8E;" d="M337.256,311.241c-3.014-6.022-8.361-10.55-14.798-12.529l-59.206-18.217
	c-4.725-1.455-9.777-1.455-14.499,0l-59.209,18.217c-6.436,1.979-11.783,6.507-14.797,12.529
	c-3.013,6.025-3.433,13.017-1.157,19.356l59.206,165.071c3.516,9.796,12.8,16.33,23.205,16.33c10.407,0,19.693-6.536,23.205-16.33
	l59.209-165.071C340.687,324.257,340.27,317.266,337.256,311.241z"/>
<path style="fill:#D6E5F6;" d="M490.622,356.823L276.96,11.677C272.467,4.418,264.538,0,255.999,0
	c-8.537,0-16.468,4.418-20.962,11.676L21.375,356.821c-5.407,8.735-4.83,19.908,1.448,28.044c6.28,8.132,16.947,11.518,26.765,8.496
	l206.41-63.512l206.413,63.512c2.391,0.736,4.83,1.091,7.246,1.091c7.504,0,14.766-3.435,19.516-9.587
	C495.454,376.731,496.031,365.558,490.622,356.823z"/>
<path style="fill:#A4C6EC;" d="M490.622,356.823L276.96,11.677C272.467,4.418,264.538,0,255.999,0v329.849l206.413,63.512
	c2.391,0.736,4.83,1.091,7.246,1.091c7.504,0,14.766-3.435,19.516-9.587C495.454,376.731,496.031,365.558,490.622,356.823z"/>
</svg>